<svg width="32" height="32" viewBox="0 0 32 32" fill="none" xmlns="http://www.w3.org/2000/svg">
<circle cx="16" cy="16" r="16" fill="white"/>
<g clip-path="url(#clip0_261_64)">
<path d="M15.4506 10.2192L15.4632 11.068C15.4639 11.1105 15.4813 11.1406 15.5155 11.1582C15.894 11.3554 16.1902 11.639 16.404 12.0092C16.4259 12.0466 16.4521 12.0513 16.4825 12.0235C16.7118 11.816 16.8051 11.5353 16.7625 11.1813" stroke="#805B00" stroke-width="2"/>
<path d="M16.7625 11.1813C16.7631 9.88168 16.7625 8.58356 16.7605 7.28691C16.7596 6.93508 16.7663 6.62283 16.4922 6.44362C16.0717 6.16655 15.441 6.39194 15.4439 7.00655C15.449 8.06058 15.4513 9.13147 15.4506 10.2192" stroke="#806C00" stroke-width="2"/>
<path d="M16.7625 11.1813C16.765 11.1666 16.7625 11.156 16.7547 11.1494C16.7489 11.145 16.7428 11.1446 16.7363 11.1483L16.7053 11.1648C16.6917 11.1721 16.6788 11.171 16.6665 11.1615L15.4506 10.2192" stroke="#FFC700" stroke-width="2"/>
<path d="M8.18616 18.2168C8.18616 19.7194 8.18616 21.2605 8.18616 22.8401C8.18519 23.5218 8.82464 23.9187 9.34104 23.6075C9.61555 23.4426 9.75216 23.1681 9.75086 22.784C9.74634 21.6867 9.74667 19.7114 9.75183 16.8578" stroke="#805B00" stroke-width="2"/>
<path d="M9.75182 16.8579C9.74794 14.9213 9.74827 12.9753 9.75279 11.0197C9.75376 10.5524 9.42435 10.1676 9.02518 10.1346C8.57563 10.0983 8.18615 10.4941 8.18615 11.0054C8.18421 13.3707 8.18421 15.7745 8.18615 18.2168" stroke="#806C00" stroke-width="2"/>
<path d="M9.75183 16.8578L8.18616 18.2168" stroke="#FFC700" stroke-width="2"/>
<path d="M22.2191 16.826C22.2191 18.8805 22.2207 20.8941 22.2239 22.8665C22.2249 23.4239 22.687 23.8066 23.1482 23.7032C23.5693 23.6094 23.7812 23.3122 23.7838 22.8115C23.7922 21.2048 23.7967 19.6165 23.7973 18.0464" stroke="#805B00" stroke-width="2"/>
<path d="M23.7974 18.0464C23.798 15.6803 23.7958 13.333 23.7906 11.0043C23.7887 10.3974 23.2635 10.0004 22.7752 10.1819C22.1784 10.4039 22.2181 10.8998 22.2181 11.499C22.2181 13.3102 22.2185 15.0859 22.2191 16.826" stroke="#806C00" stroke-width="2"/>
<path d="M23.7973 18.0464C23.2955 17.5934 22.7694 17.1866 22.2191 16.826" stroke="#FFC700" stroke-width="2"/>
<path d="M5.55471 18.2575C5.54373 18.9545 5.54018 19.6901 5.54405 20.4641C5.54599 20.9248 5.49077 21.2931 5.88025 21.5922C6.38696 21.9814 7.06613 21.6757 7.07485 20.9567C7.08518 19.984 7.08712 18.6771 7.08066 17.0359" stroke="#805B00" stroke-width="2"/>
<path d="M7.08067 17.036C7.08648 15.644 7.09068 14.2536 7.09326 12.8645C7.09326 12.5222 6.96893 12.2686 6.72025 12.1037C6.48514 11.9483 6.24325 11.9421 5.99458 12.085C5.68325 12.2646 5.52888 12.5512 5.53147 12.9448C5.54374 14.6666 5.55149 16.4375 5.55472 18.2575" stroke="#806C00" stroke-width="2"/>
<path d="M7.0807 17.0359C6.7894 17.1906 6.58723 17.3357 6.47419 17.4713C6.20162 17.7968 5.89514 18.0588 5.55475 18.2575" stroke="#FFC700" stroke-width="2"/>
<path d="M24.8854 18.8413C24.8809 19.5376 24.8754 20.2193 24.8689 20.8863C24.8657 21.1795 24.9658 21.4112 25.1693 21.5812C25.6362 21.9704 26.3861 21.6988 26.4016 20.9842C26.4094 20.592 26.4104 20.2479 26.4046 19.9518" stroke="#805B00" stroke-width="2"/>
<path d="M26.4046 19.9518C26.4084 17.5403 26.4107 15.1775 26.4113 12.8635C26.4113 11.698 24.8922 11.7222 24.8883 12.8063C24.8825 14.8323 24.8815 16.8439 24.8854 18.8413" stroke="#806C00" stroke-width="2"/>
<path d="M26.4045 19.9518L24.8854 18.8413" stroke="#FFC700" stroke-width="2"/>
<path d="M10.8738 17.1009C10.8518 17.2951 10.8592 17.4703 10.896 17.6264C10.9051 17.6638 10.9267 17.6825 10.961 17.6825L14.2832 17.6803C14.3043 17.6804 14.3248 17.6714 14.3406 17.6552C14.3563 17.6389 14.3663 17.6165 14.3684 17.5923C14.4569 16.5889 14.5893 15.6803 14.7657 14.8667C14.8122 14.652 14.8448 14.6549 14.8635 14.8755C15.1193 17.832 15.2297 20.9127 15.4787 23.8648C15.524 24.397 15.7681 24.6818 16.2112 24.7191C16.5958 24.7521 16.8758 24.4498 16.963 24.0518C17.1093 23.3844 17.1297 22.6708 17.2275 21.9924C17.3309 21.2792 17.4126 20.6448 17.4727 20.0892C17.6619 18.3447 17.8444 16.5914 18.0201 14.8293C18.0297 14.7355 18.0507 14.7322 18.083 14.8195C18.1076 14.8854 18.125 14.9547 18.1353 15.0273C18.2219 15.651 18.2875 16.3129 18.332 17.0129C18.3443 17.2093 18.3682 17.4135 18.4037 17.6253C18.4102 17.6634 18.4305 17.6825 18.4648 17.6825L21.0216 17.6792C21.0451 17.6789 21.0675 17.6681 21.084 17.6492C21.1005 17.6302 21.1097 17.6047 21.1097 17.578L21.1107 17.1503" stroke="#805B00" stroke-width="2"/>
<path d="M21.1107 17.1503L21.1117 16.3917C21.112 16.3701 21.1046 16.3493 21.0911 16.3338C21.0777 16.3184 21.0593 16.3095 21.04 16.3092L19.2932 16.3026C19.2714 16.3023 19.2504 16.293 19.234 16.2765C19.2177 16.2599 19.207 16.2372 19.204 16.2125C19.0858 15.1922 18.9415 14.1502 18.7709 13.0867C18.7315 12.8411 18.6088 12.6366 18.4028 12.4732C18.2097 12.32 18.0207 12.2804 17.836 12.3544C17.4107 12.5248 17.2508 12.9152 17.2043 13.422C17.1294 14.2356 17.0183 15.2629 16.871 16.5038C16.7838 17.2434 16.7034 18.1915 16.6298 19.3482C16.6162 19.5666 16.5833 19.8675 16.5309 20.2509" stroke="#806C00" stroke-width="2"/>
<path d="M16.5309 20.2508L16.4243 21.1359C16.4211 21.1586 16.4098 21.1722 16.3904 21.1766C16.3801 21.1795 16.3711 21.1766 16.3633 21.1678C16.351 21.1546 16.3442 21.1388 16.343 21.1205C16.3145 20.7701 16.2735 20.4432 16.2199 20.1398" stroke="#805B00" stroke-width="2"/>
<path d="M16.2199 20.1398C16.0682 17.9174 15.8908 15.7181 15.688 13.5418C15.6796 13.4517 15.6738 13.3604 15.6706 13.2681C15.6564 12.9082 15.5165 12.6271 15.2511 12.4248C14.7996 12.0795 14.0826 12.3665 13.9887 13.0064C13.8104 14.2173 13.676 15.2999 13.5856 16.2542C13.5824 16.2902 13.5646 16.3081 13.5323 16.3081L10.9697 16.3037C10.946 16.3037 10.9232 16.3143 10.9063 16.3333C10.8895 16.3522 10.8798 16.3779 10.8796 16.4049L10.8738 17.1008" stroke="#806C00" stroke-width="2"/>
<path d="M16.2199 20.1398C16.1586 20.2263 16.0491 20.1915 15.8915 20.0354C15.7471 19.8935 15.7239 19.6758 15.7094 19.4746C15.6732 18.9857 15.6422 18.473 15.6163 17.9365C15.5769 17.1199 15.4368 15.6569 15.1959 13.5474C15.1726 13.344 15.0796 13.1175 14.8723 13.1032C14.6049 13.0834 14.4544 13.2223 14.4208 13.5199C14.3458 14.1876 14.2435 14.9382 14.1136 15.7716C14.0516 16.1718 14.0009 16.5782 13.9615 16.9909C13.9594 17.0131 13.9502 17.0335 13.9357 17.0483C13.9212 17.0631 13.9024 17.0713 13.8831 17.0712L10.8738 17.1009" stroke="#FFC700" stroke-width="2"/>
<path d="M21.1107 17.1503C20.3738 17.0785 19.6481 17.0627 18.9337 17.103C18.9095 17.1044 18.8858 17.0956 18.8671 17.0783C18.8485 17.061 18.8363 17.0365 18.833 17.0096C18.7709 16.5258 18.719 16.0497 18.677 15.5813C18.6101 14.8392 18.4503 14.1652 18.3553 13.4517C18.3185 13.179 18.1218 13.058 17.9087 13.1823C17.7294 13.2867 17.712 13.5627 17.6887 13.7617C17.5938 14.5907 17.5024 15.4139 17.4145 16.2311C17.3177 17.1371 17.1171 18.4543 17.0464 19.5494C17.0212 19.929 16.8494 20.1629 16.5309 20.2508" stroke="#FFC700" stroke-width="2"/>
<path d="M4.48898 15.6429C4.48898 15.4397 4.41783 15.2448 4.29119 15.101C4.16455 14.9573 3.99279 14.8766 3.81369 14.8766H3.75556C3.57646 14.8766 3.40469 14.9573 3.27805 15.101C3.15141 15.2448 3.08026 15.4397 3.08026 15.6429V17.9386C3.08026 18.1419 3.15141 18.3368 3.27805 18.4805C3.40469 18.6242 3.57646 18.705 3.75556 18.705H3.81369C3.99279 18.705 4.16455 18.6242 4.29119 18.4805C4.41783 18.3368 4.48898 18.1419 4.48898 17.9386V15.6429Z" stroke="#805B00" stroke-width="2"/>
<path d="M27.4877 16.108C27.4845 16.7523 27.4893 17.3735 27.5023 17.9716C27.5236 18.9821 28.8829 18.9623 28.8994 17.9464C28.9032 17.673 28.9035 17.4094 28.9003 17.1558" stroke="#805B00" stroke-width="2"/>
<path d="M28.9004 17.1558C28.9023 16.7322 28.9023 16.3144 28.9004 15.9024C28.8984 15.6305 28.8777 15.4395 28.8383 15.3296C28.5855 14.6325 27.541 14.7843 27.4887 15.5792C27.4803 15.7104 27.48 15.8867 27.4878 16.108" stroke="#806C00" stroke-width="2"/>
<path d="M28.9003 17.1558C28.8228 17.1749 28.7437 17.1309 28.663 17.0239C28.5867 16.922 28.5286 16.8538 28.4886 16.8194C28.174 16.5475 27.8404 16.3103 27.4877 16.108" stroke="#FFC700" stroke-width="2"/>
<path d="M7.071 23.1414C7.07185 23.1311 7.07075 23.1207 7.06777 23.1109C7.06479 23.1011 7.06 23.0922 7.05373 23.0848C7.04746 23.0773 7.03987 23.0716 7.03148 23.0679C7.02308 23.0642 7.01409 23.0626 7.00512 23.0633C6.34339 23.1073 5.71557 23.093 5.19626 22.6048C4.81905 22.2501 4.58846 21.8363 4.5045 21.3635C4.42796 20.9325 4.45702 20.5103 4.45024 20.0815C4.44959 20.0368 4.42957 20.0156 4.39017 20.0178C4.22094 20.0266 4.05301 20.0313 3.88636 20.0321C2.86713 20.0332 2.01841 19.302 2 18.0871C1.98708 17.2691 1.98353 16.3877 1.98934 15.4428C1.99063 15.3146 2.01776 15.1471 2.07072 14.9404C2.11335 14.774 2.1815 14.6259 2.27515 14.4962C2.38237 14.3496 2.49282 14.2213 2.6065 14.1114C3.15972 13.5781 3.71294 13.5847 4.39114 13.6221C4.39914 13.6226 4.40714 13.6211 4.41465 13.618C4.42216 13.6148 4.42902 13.6099 4.43482 13.6037C4.44062 13.5974 4.44524 13.5898 4.44839 13.5815C4.45154 13.5731 4.45316 13.5641 4.45315 13.555C4.45411 13.1878 4.42796 12.8228 4.49771 12.4644C4.59654 11.9601 4.81841 11.5379 5.16332 11.1978C5.67584 10.6931 6.35501 10.7085 6.98477 10.7239C7.02417 10.7246 7.04807 10.703 7.05647 10.659C7.1779 10.0316 7.43174 9.57053 7.81799 9.27587C8.38897 8.84121 9.00452 8.74666 9.66463 8.99221C10.3971 9.26378 10.8641 10.2027 10.8631 11.0548C10.8618 12.3529 10.8615 13.6434 10.8621 14.9261C10.8621 14.948 10.8698 14.9689 10.8834 14.9844C10.8971 14.9999 10.9155 15.0085 10.9348 15.0085L12.61 14.9997C12.6181 14.9997 12.626 14.9964 12.6322 14.9906C12.6384 14.9848 12.6425 14.9767 12.6439 14.9679C12.7427 14.3507 12.8389 13.6599 12.9326 12.8954C12.9701 12.5912 13.0808 12.261 13.2649 11.9047C13.4852 11.4803 13.8453 11.1926 14.3452 11.0416C14.3566 11.0382 14.3667 11.0306 14.3738 11.0198C14.381 11.0091 14.3849 10.9959 14.3849 10.9823C14.3901 9.71786 14.3885 8.3886 14.3801 6.99446C14.3781 6.71006 14.4069 6.46048 14.4663 6.24572C14.5564 5.92027 14.8412 5.4464 15.1406 5.27048C15.6425 4.97692 16.2102 4.8197 16.746 5.11106C16.9272 5.20891 17.1219 5.27048 17.277 5.42551C17.712 5.8609 17.8631 6.37875 17.8573 7.09012C17.8457 8.39776 17.8444 9.68085 17.8534 10.9394C17.8534 10.9471 17.8548 10.9547 17.8576 10.9618C17.8603 10.9688 17.8644 10.9751 17.8695 10.9803C17.8746 10.9855 17.8807 10.9894 17.8873 10.9919C17.8938 10.9943 17.9008 10.9951 17.9077 10.9944C18.0453 10.9797 18.1806 10.9958 18.3136 11.0427C19.0752 11.311 19.5528 11.8519 19.7466 12.6656C19.8286 13.0093 19.8861 13.5125 19.919 14.1751C19.9316 14.4357 20.0024 14.6963 20.0304 14.958C20.0321 14.9738 20.0388 14.9884 20.0491 14.9989C20.0595 15.0094 20.0728 15.0152 20.0866 15.0151L21.041 15.014C21.052 15.014 21.063 15.0116 21.0732 15.0068C21.0834 15.002 21.0927 14.9949 21.1006 14.986C21.1084 14.9771 21.1146 14.9666 21.1188 14.955C21.1231 14.9434 21.1253 14.9309 21.1253 14.9184C21.1233 13.6313 21.1207 12.3518 21.1175 11.0801C21.1162 10.6616 21.2238 10.2225 21.4401 9.76294C21.5244 9.58373 21.7424 9.32975 21.8955 9.2286C23.1066 8.43697 24.6364 8.97572 24.8815 10.6491C24.8845 10.6704 24.8941 10.6898 24.9085 10.7038C24.9229 10.7177 24.9412 10.7252 24.96 10.725C25.6227 10.7162 26.3145 10.6931 26.8551 11.2263C27.211 11.5767 27.4303 12.0194 27.5129 12.5545C27.5614 12.8679 27.5284 13.2318 27.5372 13.5572C27.5377 13.5757 27.5445 13.5932 27.5561 13.6059C27.5677 13.6187 27.5831 13.6257 27.5992 13.6254C28.01 13.6177 28.4915 13.5517 28.8752 13.7485C29.3899 14.0117 29.73 14.4207 29.8954 14.9756C29.9871 15.2812 30.0262 15.703 30.0126 16.2411C29.9997 16.741 29.9994 17.217 30.0116 17.6693C30.0271 18.2289 29.937 18.7127 29.6396 19.1932C29.1242 20.0255 28.4237 20.0551 27.5953 20.0178C27.5559 20.0163 27.5362 20.0379 27.5362 20.0826C27.5362 20.7599 27.6021 21.4229 27.2533 22.021C26.8296 22.7489 26.2173 23.1007 25.4163 23.0765C25.2594 23.0714 25.0973 23.0688 24.93 23.0688C24.8931 23.0695 24.8731 23.0908 24.8699 23.1326C24.8266 23.7739 24.565 24.2768 24.0851 24.6411C23.2025 25.3117 21.9643 25.0633 21.4275 24.0067C21.2192 23.5988 21.1117 23.2216 21.1146 22.7357C21.123 21.4727 21.1246 20.245 21.1194 19.0524C21.1192 19.0302 21.1111 19.0089 21.097 18.9933C21.0828 18.9776 21.0637 18.9689 21.0439 18.9689L18.643 18.9733C18.6371 18.9732 18.6313 18.9756 18.6269 18.9801C18.6224 18.9846 18.6195 18.9907 18.6188 18.9974C18.4793 19.9617 18.3553 20.916 18.2875 21.9089C18.2345 22.6902 18.1286 23.5533 17.9697 24.4981C17.907 24.8668 17.7536 25.1747 17.5095 25.4217C17.007 25.9304 16.4489 26.1155 15.8353 25.9769C15.0215 25.7933 14.4275 24.9423 14.4159 24.0111C14.3946 22.341 14.2008 20.5972 14.1117 19.0018C14.1114 18.9939 14.1084 18.9863 14.1031 18.9808C14.0979 18.9752 14.0909 18.9721 14.0836 18.9722H10.929C10.8909 18.9722 10.8718 18.9934 10.8718 19.0359C10.8596 20.1574 10.8579 21.3298 10.867 22.5531C10.8702 22.9541 10.8247 23.2865 10.7304 23.5504C10.0173 25.5613 7.87515 25.4558 7.12913 23.5493C7.07811 23.4181 7.05873 23.2821 7.071 23.1414ZM15.4507 10.2192L15.4632 11.068C15.4639 11.1105 15.4813 11.1406 15.5156 11.1582C15.8941 11.3554 16.1902 11.639 16.404 12.0092C16.426 12.0466 16.4521 12.0513 16.4825 12.0235C16.7118 11.816 16.8051 11.5353 16.7625 11.1813C16.7631 9.88169 16.7625 8.58357 16.7606 7.28692C16.7596 6.93509 16.7664 6.62284 16.4922 6.44362C16.0717 6.16656 15.441 6.39195 15.4439 7.00656C15.449 8.06059 15.4513 9.13148 15.4507 10.2192ZM8.18616 18.2168C8.18616 19.7194 8.18616 21.2605 8.18616 22.8401C8.18519 23.5218 8.82463 23.9187 9.34104 23.6075C9.61555 23.4426 9.75215 23.1681 9.75086 22.784C9.74634 21.6868 9.74666 19.7114 9.75183 16.8579C9.74796 14.9213 9.74828 12.9752 9.7528 11.0196C9.75377 10.5524 9.42436 10.1675 9.02519 10.1346C8.57564 10.0983 8.18616 10.4941 8.18616 11.0054C8.18422 13.3707 8.18422 15.7745 8.18616 18.2168ZM22.2191 16.826C22.2191 18.8805 22.2207 20.894 22.2239 22.8665C22.2249 23.4239 22.6871 23.8066 23.1482 23.7032C23.5694 23.6094 23.7812 23.3122 23.7838 22.8115C23.7922 21.2048 23.7967 19.6164 23.7974 18.0464C23.798 15.6803 23.7958 13.3329 23.7906 11.0043C23.7886 10.3973 23.2635 10.0004 22.7752 10.1818C22.1784 10.4039 22.2181 10.8998 22.2181 11.499C22.2181 13.3102 22.2185 15.0859 22.2191 16.826ZM5.55474 18.2575C5.54376 18.9546 5.5402 19.6901 5.54408 20.4641C5.54602 20.9248 5.49079 21.2932 5.88027 21.5922C6.38699 21.9814 7.06616 21.6758 7.07488 20.9567C7.08521 19.984 7.08715 18.6771 7.08069 17.036C7.0865 15.644 7.0907 14.2536 7.09328 12.8646C7.09328 12.5223 6.96895 12.2686 6.72027 12.1037C6.48516 11.9483 6.24327 11.9421 5.9946 12.085C5.68327 12.2646 5.5289 12.5512 5.53148 12.9448C5.54376 14.6666 5.55151 16.4375 5.55474 18.2575ZM24.8854 18.8413C24.8809 19.5377 24.8754 20.2193 24.8689 20.8863C24.8657 21.1795 24.9658 21.4112 25.1693 21.5812C25.6363 21.9704 26.3862 21.6989 26.4017 20.9842C26.4094 20.5921 26.4104 20.2479 26.4046 19.9518C26.4084 17.5403 26.4107 15.1775 26.4113 12.8635C26.4113 11.698 24.8922 11.7222 24.8883 12.8063C24.8825 14.8323 24.8815 16.8439 24.8854 18.8413ZM10.8738 17.1008C10.8518 17.2951 10.8592 17.4703 10.8961 17.6264C10.9051 17.6638 10.9267 17.6825 10.961 17.6825L14.2832 17.6803C14.3044 17.6804 14.3248 17.6714 14.3406 17.6552C14.3563 17.6389 14.3663 17.6165 14.3684 17.5923C14.4569 16.5889 14.5893 15.6803 14.7657 14.8667C14.8122 14.6519 14.8448 14.6549 14.8635 14.8755C15.1193 17.832 15.2298 20.9127 15.4788 23.8648C15.524 24.397 15.7681 24.6817 16.2112 24.7191C16.5958 24.7521 16.8758 24.4497 16.963 24.0517C17.1093 23.3844 17.1297 22.6708 17.2275 21.9924C17.3309 21.2792 17.4126 20.6448 17.4727 20.0892C17.6619 18.3447 17.8444 16.5914 18.0201 14.8293C18.0298 14.7355 18.0507 14.7322 18.083 14.8194C18.1076 14.8854 18.125 14.9547 18.1354 15.0272C18.2219 15.651 18.2875 16.3129 18.332 17.0129C18.3443 17.2093 18.3682 17.4135 18.4037 17.6253C18.4102 17.6634 18.4305 17.6825 18.4648 17.6825L21.0216 17.6792C21.0451 17.6789 21.0675 17.6681 21.084 17.6492C21.1005 17.6302 21.1098 17.6047 21.1098 17.578L21.1107 17.1503L21.1117 16.3917C21.1119 16.3701 21.1045 16.3493 21.0911 16.3338C21.0776 16.3184 21.0593 16.3095 21.04 16.3092L19.2931 16.3026C19.2714 16.3023 19.2504 16.293 19.234 16.2765C19.2177 16.2599 19.207 16.2372 19.204 16.2125C19.0858 15.1922 18.9415 14.1502 18.7709 13.0867C18.7315 12.8411 18.6088 12.6366 18.4028 12.4732C18.2096 12.32 18.0207 12.2804 17.836 12.3544C17.4107 12.5248 17.2508 12.9151 17.2043 13.422C17.1294 14.2356 17.0183 15.2629 16.871 16.5038C16.7838 17.2434 16.7034 18.1915 16.6298 19.3482C16.6162 19.5666 16.5832 19.8675 16.5309 20.2508L16.4244 21.1359C16.4211 21.1586 16.4098 21.1722 16.3904 21.1766C16.3801 21.1795 16.3711 21.1766 16.3633 21.1678C16.351 21.1546 16.3443 21.1389 16.343 21.1205C16.3146 20.7702 16.2735 20.4433 16.2199 20.1398C16.0681 17.9174 15.8908 15.7181 15.688 13.5418C15.6796 13.4517 15.6738 13.3604 15.6706 13.2681C15.6564 12.9082 15.5165 12.6271 15.2511 12.4248C14.7996 12.0795 14.0826 12.3665 13.9886 13.0064C13.8104 14.2173 13.676 15.2999 13.5856 16.2543C13.5824 16.2902 13.5646 16.3081 13.5323 16.3081L10.9697 16.3037C10.946 16.3037 10.9232 16.3143 10.9063 16.3333C10.8894 16.3522 10.8798 16.378 10.8796 16.4049L10.8738 17.1008ZM4.48899 15.6429C4.48899 15.4397 4.41785 15.2448 4.2912 15.1011C4.16456 14.9573 3.9928 14.8766 3.8137 14.8766H3.75557C3.57647 14.8766 3.40471 14.9573 3.27806 15.1011C3.15142 15.2448 3.08027 15.4397 3.08027 15.6429V17.9386C3.08027 18.1419 3.15142 18.3368 3.27806 18.4805C3.40471 18.6242 3.57647 18.705 3.75557 18.705H3.8137C3.9928 18.705 4.16456 18.6242 4.2912 18.4805C4.41785 18.3368 4.48899 18.1419 4.48899 17.9386V15.6429ZM27.4877 16.108C27.4845 16.7523 27.4894 17.3735 27.5023 17.9716C27.5236 18.9821 28.8829 18.9623 28.8994 17.9463C28.9033 17.6729 28.9036 17.4094 28.9003 17.1558C28.9023 16.7322 28.9023 16.3144 28.9003 15.9024C28.8984 15.6305 28.8777 15.4395 28.8383 15.3296C28.5855 14.6325 27.541 14.7843 27.4887 15.5792C27.4803 15.7104 27.48 15.8867 27.4877 16.108Z" fill="black"/>
<path d="M16.7625 11.1813C16.7651 11.1666 16.7625 11.156 16.7547 11.1494C16.7489 11.145 16.7428 11.1446 16.7363 11.1483L16.7053 11.1648C16.6917 11.1721 16.6788 11.171 16.6666 11.1615L15.4506 10.2192C15.4513 9.13147 15.449 8.06058 15.4439 7.00655C15.441 6.39194 16.0717 6.16655 16.4922 6.44362C16.7663 6.62283 16.7596 6.93508 16.7605 7.28691C16.7625 8.58356 16.7631 9.88168 16.7625 11.1813Z" fill="#FFD800"/>
<path d="M9.75182 16.8579L8.18615 18.2168C8.18421 15.7745 8.18421 13.3707 8.18615 11.0054C8.18615 10.4941 8.57563 10.0983 9.02518 10.1346C9.42435 10.1676 9.75376 10.5524 9.75279 11.0197C9.74827 12.9753 9.74794 14.9213 9.75182 16.8579Z" fill="#FFD800"/>
<path d="M23.7974 18.0464C23.2955 17.5934 22.7694 17.1866 22.2191 16.826C22.2185 15.0859 22.2181 13.3102 22.2181 11.499C22.2181 10.8998 22.1784 10.4039 22.7752 10.1819C23.2635 10.0004 23.7887 10.3974 23.7906 11.0043C23.7958 13.333 23.798 15.6803 23.7974 18.0464Z" fill="#FFD800"/>
<path d="M16.7625 11.1813C16.8051 11.5353 16.7118 11.816 16.4825 12.0235C16.4522 12.0513 16.426 12.0466 16.404 12.0092C16.1902 11.639 15.8941 11.3554 15.5156 11.1582C15.4814 11.1406 15.4639 11.1105 15.4633 11.068L15.4507 10.2192L16.6666 11.1615C16.6789 11.171 16.6918 11.1721 16.7054 11.1648L16.7364 11.1483C16.7428 11.1446 16.749 11.145 16.7548 11.1494C16.7625 11.156 16.7651 11.1666 16.7625 11.1813Z" fill="#FFB500"/>
<path d="M7.08067 17.036C6.78937 17.1906 6.5872 17.3358 6.47416 17.4714C6.20159 17.7968 5.89511 18.0588 5.55472 18.2575C5.55149 16.4375 5.54374 14.6666 5.53147 12.9448C5.52888 12.5512 5.68325 12.2646 5.99458 12.085C6.24325 11.9421 6.48514 11.9483 6.72025 12.1037C6.96893 12.2686 7.09326 12.5222 7.09326 12.8645C7.09068 14.2536 7.08648 15.644 7.08067 17.036Z" fill="#FFD800"/>
<path d="M26.4046 19.9518L24.8854 18.8413C24.8815 16.8439 24.8825 14.8323 24.8883 12.8063C24.8922 11.7222 26.4113 11.698 26.4113 12.8635C26.4107 15.1775 26.4084 17.5403 26.4046 19.9518Z" fill="#FFD800"/>
<path d="M16.2199 20.1398C16.1586 20.2263 16.0491 20.1915 15.8915 20.0353C15.7471 19.8935 15.7239 19.6758 15.7094 19.4746C15.6732 18.9857 15.6422 18.473 15.6163 17.9364C15.5769 17.1199 15.4368 15.6569 15.1959 13.5473C15.1726 13.3439 15.0796 13.1174 14.8723 13.1031C14.6049 13.0834 14.4544 13.2223 14.4208 13.5198C14.3458 14.1876 14.2435 14.9382 14.1136 15.7716C14.0516 16.1718 14.0009 16.5782 13.9615 16.9909C13.9594 17.013 13.9502 17.0335 13.9357 17.0483C13.9212 17.0631 13.9024 17.0713 13.8831 17.0712L10.8738 17.1008L10.8796 16.4049C10.8798 16.3779 10.8895 16.3522 10.9063 16.3333C10.9232 16.3143 10.946 16.3037 10.9697 16.3037L13.5323 16.3081C13.5646 16.3081 13.5824 16.2902 13.5856 16.2542C13.676 15.2999 13.8104 14.2173 13.9887 13.0064C14.0826 12.3665 14.7996 12.0795 15.2511 12.4248C15.5165 12.6271 15.6564 12.9082 15.6706 13.2681C15.6738 13.3604 15.6796 13.4517 15.688 13.5418C15.8908 15.7181 16.0682 17.9174 16.2199 20.1398Z" fill="#FFD800"/>
<path d="M21.1107 17.1503C20.3738 17.0785 19.6481 17.0627 18.9337 17.1031C18.9095 17.1045 18.8858 17.0956 18.8671 17.0784C18.8485 17.0611 18.8363 17.0365 18.833 17.0096C18.7709 16.5258 18.719 16.0498 18.677 15.5814C18.6101 14.8392 18.4503 14.1653 18.3553 13.4517C18.3185 13.179 18.1218 13.0581 17.9087 13.1823C17.7294 13.2868 17.712 13.5627 17.6887 13.7617C17.5938 14.5908 17.5024 15.4139 17.4145 16.2312C17.3177 17.1371 17.1171 18.4543 17.0464 19.5494C17.0212 19.9291 16.8494 20.1629 16.5309 20.2509C16.5833 19.8675 16.6162 19.5666 16.6298 19.3482C16.7034 18.1915 16.7838 17.2434 16.871 16.5038C17.0183 15.2629 17.1294 14.2356 17.2043 13.422C17.2508 12.9152 17.4107 12.5248 17.836 12.3544C18.0207 12.2804 18.2097 12.32 18.4028 12.4732C18.6088 12.6366 18.7315 12.8411 18.7709 13.0867C18.9415 14.1502 19.0858 15.1922 19.204 16.2125C19.207 16.2372 19.2177 16.2599 19.234 16.2765C19.2504 16.293 19.2714 16.3023 19.2932 16.3026L21.04 16.3092C21.0593 16.3095 21.0777 16.3184 21.0911 16.3338C21.1046 16.3493 21.112 16.3701 21.1117 16.3917L21.1107 17.1503Z" fill="#FFD800"/>
<path d="M16.2199 20.1398C16.2735 20.4433 16.3145 20.7702 16.343 21.1206C16.3443 21.1389 16.351 21.1546 16.3633 21.1678C16.3711 21.1766 16.3801 21.1796 16.3904 21.1766C16.4098 21.1722 16.4211 21.1587 16.4243 21.1359L16.5309 20.2509C16.8494 20.1629 17.0212 19.9291 17.0464 19.5494C17.1171 18.4543 17.3176 17.1371 17.4145 16.2312C17.5024 15.4139 17.5938 14.5908 17.6887 13.7618C17.712 13.5628 17.7294 13.2868 17.9086 13.1823C18.1218 13.0581 18.3185 13.179 18.3553 13.4517C18.4502 14.1653 18.6101 14.8392 18.6769 15.5814C18.7189 16.0498 18.7709 16.5258 18.8329 17.0096C18.8363 17.0365 18.8485 17.0611 18.8671 17.0784C18.8858 17.0957 18.9095 17.1045 18.9337 17.1031C19.6481 17.0628 20.3737 17.0785 21.1107 17.1503L21.1097 17.578C21.1097 17.6047 21.1005 17.6302 21.084 17.6492C21.0675 17.6681 21.0451 17.6789 21.0216 17.6792L18.4648 17.6825C18.4305 17.6825 18.4102 17.6634 18.4037 17.6253C18.3682 17.4135 18.3443 17.2093 18.332 17.0129C18.2875 16.3129 18.2219 15.651 18.1353 15.0273C18.125 14.9547 18.1076 14.8854 18.083 14.8195C18.0507 14.7322 18.0297 14.7355 18.0201 14.8293C17.8444 16.5914 17.6619 18.3447 17.4727 20.0892C17.4126 20.6448 17.3309 21.2792 17.2275 21.9924C17.1297 22.6708 17.1093 23.3844 16.963 24.0518C16.8758 24.4498 16.5958 24.7521 16.2112 24.7191C15.7681 24.6818 15.524 24.397 15.4787 23.8648C15.2297 20.9128 15.1193 17.832 14.8635 14.8755C14.8448 14.6549 14.8122 14.652 14.7657 14.8667C14.5893 15.6803 14.4569 16.5889 14.3684 17.5923C14.3663 17.6165 14.3563 17.6389 14.3406 17.6552C14.3248 17.6714 14.3043 17.6804 14.2832 17.6803L10.961 17.6825C10.9267 17.6825 10.9051 17.6638 10.896 17.6264C10.8592 17.4703 10.8518 17.2951 10.8738 17.1009L13.883 17.0712C13.9024 17.0713 13.9212 17.0631 13.9357 17.0483C13.9501 17.0335 13.9594 17.0131 13.9615 16.9909C14.0009 16.5782 14.0516 16.1718 14.1136 15.7716C14.2434 14.9382 14.3458 14.1876 14.4207 13.5199C14.4543 13.2223 14.6048 13.0834 14.8722 13.1032C15.0796 13.1175 15.1726 13.344 15.1958 13.5474C15.4368 15.6569 15.5769 17.1199 15.6163 17.9365C15.6422 18.473 15.6732 18.9857 15.7093 19.4746C15.7239 19.6758 15.7471 19.8935 15.8915 20.0354C16.0491 20.1915 16.1586 20.2263 16.2199 20.1398Z" fill="#FFB500"/>
<path d="M3.81369 14.8766H3.75556C3.3826 14.8766 3.08026 15.2197 3.08026 15.6429V17.9386C3.08026 18.3619 3.3826 18.705 3.75556 18.705H3.81369C4.18664 18.705 4.48898 18.3619 4.48898 17.9386V15.6429C4.48898 15.2197 4.18664 14.8766 3.81369 14.8766Z" fill="#FFB500"/>
<path d="M28.9004 17.1558C28.8228 17.1749 28.7437 17.1309 28.663 17.0239C28.5868 16.922 28.5286 16.8538 28.4886 16.8194C28.174 16.5474 27.8404 16.3103 27.4878 16.108C27.48 15.8867 27.4803 15.7104 27.4887 15.5792C27.541 14.7843 28.5855 14.6325 28.8383 15.3296C28.8777 15.4395 28.8984 15.6305 28.9004 15.9024C28.9023 16.3144 28.9023 16.7322 28.9004 17.1558Z" fill="#FFD800"/>
<path d="M28.9003 17.1558C28.9035 17.4094 28.9032 17.673 28.8994 17.9464C28.8829 18.9623 27.5236 18.9821 27.5023 17.9716C27.4893 17.3735 27.4845 16.7523 27.4877 16.108C27.8404 16.3103 28.174 16.5475 28.4886 16.8194C28.5286 16.8538 28.5867 16.922 28.6629 17.0239C28.7437 17.1309 28.8228 17.1749 28.9003 17.1558Z" fill="#FFB500"/>
<path d="M9.75183 16.8578C9.74667 19.7114 9.74634 21.6867 9.75086 22.784C9.75216 23.1681 9.61555 23.4426 9.34104 23.6075C8.82464 23.9187 8.18519 23.5218 8.18616 22.8401C8.18616 21.2605 8.18616 19.7194 8.18616 18.2168L9.75183 16.8578Z" fill="#FFB500"/>
<path d="M23.7974 18.0464C23.7967 19.6165 23.7922 21.2048 23.7838 22.8115C23.7812 23.3122 23.5694 23.6094 23.1483 23.7032C22.6871 23.8066 22.2249 23.4239 22.224 22.8665C22.2207 20.8941 22.2191 18.8805 22.2191 16.826C22.7694 17.1866 23.2955 17.5934 23.7974 18.0464Z" fill="#FFB500"/>
<path d="M7.08066 17.0359C7.08712 18.6771 7.08518 19.984 7.07485 20.9567C7.06613 21.6757 6.38696 21.9814 5.88025 21.5922C5.49077 21.2931 5.54599 20.9248 5.54405 20.4641C5.54018 19.6901 5.54373 18.9545 5.55471 18.2575C5.8951 18.0588 6.20158 17.7968 6.47416 17.4713C6.58719 17.3357 6.78936 17.1906 7.08066 17.0359Z" fill="#FFB500"/>
<path d="M26.4046 19.9518C26.4104 20.2479 26.4094 20.592 26.4016 20.9842C26.3861 21.6988 25.6362 21.9704 25.1693 21.5812C24.9658 21.4112 24.8657 21.1795 24.8689 20.8863C24.8754 20.2193 24.8809 19.5376 24.8854 18.8413L26.4046 19.9518Z" fill="#FFB500"/>
</g>
<defs>
<clipPath id="clip0_261_64">
<rect width="28" height="21" fill="white" transform="translate(2 5)"/>
</clipPath>
</defs>
</svg>
